PathFileType	4	(X/Y/Z)	0_coords_data.trc
DataRate	CameraRate	NumFrames	NumMarkers	Units	OrigDataRate	OrigDataStartFrame	OrigNumFrames
30.0	30.0	5	21	m	30.0	42	72
Frame#	Time	THUMB_TIP	THUMB_IP	THUMB_MCP	THUMB_CMC	INDEX_TIP	INDEX_DIP	INDEX_PIP	INDEX_MCP	MIDDLE_TIP	MIDDLE_DIP	MIDDLE_PIP	MIDDLE_MCP	RING_TIP	RING_DIP	RING_PIP	RING_MCP	PINKY_TIP	PINKY_DIP	PINKY_PIP	PINKY_MCP	WRIST
X1	Y1	Z1	X2	Y2	Z2	X3	Y3	Z3	X4	Y4	Z4	X5	Y5	Z5	X6	Y6	Z6	X7	Y7	Z7	X8	Y8	Z8	X9	Y9	Z9	X10	Y10	Z10	X11	Y11	Z11	X12	Y12	Z12	X13	Y13	Z13	X14	Y14	Z14	X15	Y15	Z15	X16	Y16	Z16	X17	Y17	Z17	X18	Y18	Z18	X19	Y19	Z19	X20	Y20	Z20	X21	Y21	Z21
40	1.3666666666666607	0.4928719621325046	-0.02454146655259848	-0.16906345871487505	0.49395131923822233	-0.02431160514296571	-0.1461117234434256	0.4764992803764343	-0.029414711065175125	-0.12084901081169608	0.47685323124899226	-0.0271979844667527	-0.07629734594978926	0.5047910402982971	-0.021627893281016664	-0.10081968934028668	0.5204700753110723	-0.017477204538144164	-0.10887820310077406	0.528618265762485	0.0009699991260161411	-0.12388878278113602	0.49091600110923506	0.020137284271933842	-0.11890977543515036	0.5078632911129228	-0.019302081830152695	-0.08930413220508604	0.5243972956415257	-0.013590645481523334	-0.09399520767705322	0.5381379585704058	0.009367537842941864	-0.10555053332002617	0.5000622936651534	0.03181847726506215	-0.09904307743564078	0.5078970090406776	-0.011869918429156412	-0.07608608122142752	0.5256248556148613	-0.009294248460597343	-0.0781083027857647	0.542427668790866	0.008151922939497958	-0.08389419527100633	0.5119377645059173	0.034085877712391355	-0.07819186587573407	0.5119736292490108	-0.013168476780307525	-0.0622337285913806	0.5289394085208095	-0.011663488562765223	-0.06393588726954907	0.5428548680929339	0.0040509172887144285	-0.06345687512820725	0.5163764579069787	0.027177273800142898	-0.05539778836042669	0.462283081001861	-0.023011742144276925	-0.05198982011943104
41	1.3999999999999937	0.4943987141284659	-0.02624853000705829	-0.16867602994307662	0.4944960626125654	-0.025755372108536956	-0.14570327828900242	0.4763430683050218	-0.030292654025174004	-0.1208295598199185	0.47671307217547965	-0.027632008384383955	-0.07630233149937304	0.510939888594163	-0.025444949312743437	-0.10306722508478672	0.524851918268046	-0.018519280683433448	-0.1123672543530197	0.5293511866623957	0.001493629052066514	-0.12690169141932306	0.49120175977326475	0.018934615183295755	-0.11954850674864215	0.5139415176405726	-0.022374944595342172	-0.09240965604523366	0.5292432721100805	-0.014317401130481744	-0.09778853171462615	0.5396182833300962	0.010552629626624399	-0.10889034518473717	0.5007074686441122	0.030594542106954337	-0.09992272757447912	0.5146740095443774	-0.015494121099296598	-0.07919111502565113	0.5316136309885191	-0.009951156951406692	-0.08189754695429485	0.5453283343450623	0.01010714700292381	-0.0873520252352788	0.5127421448738945	0.032730524804607364	-0.07953896779331354	0.5174171979285707	-0.015392926669915652	-0.06599105725257542	0.5341015490989421	-0.011782782137776171	-0.067255684660464	0.5459528643785552	0.005503677653817984	-0.06601606656733477	0.5175091158191923	0.02578555638443958	-0.057044889718776415	0.4622830810018609	-0.023011742144276925	-0.051989820119430985
42	1.4333333333333271	0.49622420053008043	-0.028253117222429958	-0.1680816998635214	0.49529600385671446	-0.027415262021629583	-0.14513749690072397	0.4763762726324139	-0.031342452320698655	-0.12073583821211986	0.47665242707072275	-0.0280870392301924	-0.07624745743313038	0.5192804273497066	-0.029149055643940658	-0.10672462119637594	0.5302223020434249	-0.01897336856174603	-0.1169584264804443	0.5301653653918292	0.0023415932509368576	-0.13028805491268397	0.4916603394315695	0.01749792400611505	-0.12022402451530495	0.5217063528428884	-0.025287943576135175	-0.096610830399812	0.5351231619300095	-0.014587086634736401	-0.1023970981640499	0.5411291472824729	0.012085459127905152	-0.11249229466960603	0.5014979723757781	0.029135929587765563	-0.1008819822874002	0.5234262989525598	-0.018618432448009425	-0.08333036725653276	0.5388293731706675	-0.009770733708126755	-0.08640665262036806	0.5482530675673019	0.01279674677297793	-0.09110588528685754	0.5136627997653541	0.03112751958275195	-0.0809956441628295	0.5243477153372346	-0.017341809811092235	-0.07027527585945426	0.540277180797029	-0.01110466621455497	-0.07086702743012557	0.5492161331696099	0.007759860943141739	-0.0686227536952046	0.5186643283999954	0.02422526134116343	-0.05880637625481433	0.4622830810018608	-0.023011742144276925	-0.051989820119430985
43	1.4666666666666603	0.4982223420609072	-0.03040287648448914	-0.16733796843165732	0.49625394103423903	-0.029151713321177608	-0.14447839739156598	0.47655952156586634	-0.03244291193728277	-0.12060125657711485	0.47663025455334873	-0.028520263505466548	-0.07616593474723665	0.5296108178434071	-0.03158294990367638	-0.11227244632659178	0.5361343911720753	-0.018249208685122698	-0.122648107083485	0.5309019394579073	0.003637109410018824	-0.13385615607950474	0.49225511652119835	0.015941100153408883	-0.12086881675671657	0.53106234666544	-0.027206856237737997	-0.10197375269993525	0.5418276695677342	-0.013834961192234374	-0.10774438920740803	0.542489158270731	0.014075893039878551	-0.11610837143655894	0.5023601725386185	0.02756168839329831	-0.10182741387771149	0.5339235786806272	-0.020207074871571362	-0.08831136814510715	0.5468512839151589	-0.008029983769451854	-0.09140860718330596	0.5507730565349366	0.016326447589573023	-0.09480918507123509	0.5145796702769765	0.02943080973717882	-0.08243844063581357	0.5327703862395723	-0.018383524551382147	-0.0748947187288242	0.5471633309871435	-0.009130159703003238	-0.07442740676006587	0.5522202682150963	0.010952425746509786	-0.07097354420698776	0.519728780959406	0.022632999766045714	-0.06054517436853912	0.4622830810018608	-0.023011742144276925	-0.05198982011943104
44	1.4999999999999936	0.5001230783426883	-0.032656525067791375	-0.166500777930791	0.4972069600820832	-0.030978448589587648	-0.143770174911437	0.4767946897378844	-0.03359931346483502	-0.12041872342119686	0.476644696179661	-0.02896144096075215	-0.07605254665816752	0.5406893085827233	-0.03152858205060027	-0.12007052653036027	0.5418408569589741	-0.016018904397489653	-0.1293508193831614	0.5313849610777727	0.005334768217219232	-0.13751811637698436	0.4929544982093472	0.014263485362886574	-0.12148647179973504	0.5415301442473819	-0.027402225053034024	-0.10853621911805916	0.5488445113018395	-0.011676218918093895	-0.11375088743315692	0.5435729594049205	0.016383631635625284	-0.11960452540462746	0.5032881952026351	0.025856046422248702	-0.10276531365714864	0.5453882824402747	-0.019422677737932714	-0.09401154222044983	0.5548903373142541	-0.004327687785222301	-0.09662921895745596	0.5526118701247147	0.02041950098769818	-0.09823084753600614	0.5155163860504639	0.027618659889896646	-0.08384967907172924	0.5423829535769431	-0.017825763120045357	-0.07942343666427781	0.5542347588513502	-0.005605388388956634	-0.07763537817270089	0.5546209091049861	0.01484856040214766	-0.0729132085619712	0.5207195972245254	0.020995518835716265	-0.06224552812995032	0.462283081001861	-0.023011742144276925	-0.051989820119430985
